<svg width="22.217590" height="12.102600" viewBox="0 0 22.2176 12.1026" fill="none" xmlns="http://www.w3.org/2000/svg" xmlns:xlink="http://www.w3.org/1999/xlink">
	<desc>
			Created with Pixso.
	</desc>
	<defs/>
	<rect id="Компоненты 8" width="22.000000" height="12.000000" fill="#FFFFFF" fill-opacity="0"/>
	<path id="Прямоугольник 30 (Граница)" d="M20.4 0L1.81 0C0.51 0 -0.37 1.36 0.14 2.59L3.6 10.96C3.88 11.65 4.54 12.1 5.27 12.1L16.94 12.1C17.67 12.1 18.32 11.65 18.61 10.96L22.07 2.59C22.57 1.36 21.7 0 20.4 0ZM20.4 1.06L1.81 1.06C1.67 1.06 1.55 1.09 1.44 1.15C1.33 1.21 1.24 1.3 1.16 1.42C1.08 1.54 1.04 1.66 1.03 1.79C1.02 1.91 1.04 2.04 1.09 2.17L4.55 10.54C4.62 10.71 4.71 10.83 4.83 10.91C4.95 10.99 5.1 11.03 5.27 11.03L16.94 11.03C17.11 11.03 17.26 10.99 17.38 10.91C17.5 10.83 17.59 10.71 17.66 10.54L21.11 2.17C21.17 2.04 21.19 1.91 21.18 1.79C21.17 1.66 21.12 1.54 21.05 1.42C20.97 1.3 20.88 1.21 20.77 1.15C20.66 1.09 20.54 1.06 20.4 1.06Z" fill="#FFFFFF" fill-opacity="1.000000" fill-rule="evenodd"/>
	<path id="Прямоугольник 31 (Граница)" d="M7.61 0.1L14.34 0.1L14.22 0.9L12.52 12.1L9.43 12.1L7.61 0.1ZM11.85 11.3L13.43 0.9L8.52 0.9L10.1 11.3L11.85 11.3Z" fill="#FFFFFF" fill-opacity="1.000000" fill-rule="evenodd"/>
	<path id="Прямоугольник 32 (Граница)" d="M2.69 0.1L19.52 0.1L19.21 0.9L14.96 12.1L7.25 12.1L3 0.9L2.69 0.1ZM14.43 11.3L18.38 0.9L3.83 0.9L7.78 11.3L14.43 11.3Z" fill="#FFFFFF" fill-opacity="1.000000" fill-rule="evenodd"/>
	<path id="Прямоугольник 33 (Граница)" d="M19.1 8.76L21.16 3.99L21.41 3.43L0.8 3.43L3.11 8.76L19.1 8.76ZM20.21 4.23L18.59 7.96L3.61 7.96L2 4.23L20.21 4.23Z" fill="#FFFFFF" fill-opacity="1.000000" fill-rule="evenodd"/>
</svg>
